<?xml version="1.0" encoding="UTF-8"?>
<svg width="36px" height="36px" viewBox="0 0 36 36" version="1.1" xmlns="http://www.w3.org/2000/svg" xmlns:xlink="http://www.w3.org/1999/xlink">
    <!-- Generator: Sketch 48.2 (47327) - http://www.bohemiancoding.com/sketch -->
    <title>Artboard 3</title>
    <desc>Created with Sketch.</desc>
    <defs></defs>
    <g id="Page-1" stroke="none" stroke-width="1" fill="none" fill-rule="evenodd">
        <g id="Artboard-3" fill="#FFFFFF">
            <g id="LinkedIN">
                <path d="M12.7204065,14.9083862 L12.7204065,27.1646698 L8.64121285,27.1646698 L8.64121285,14.9083862 L12.7204065,14.9083862 Z M12.9890725,11.1170233 C12.9890725,12.2938523 12.1032405,13.2355108 10.6808911,13.2355108 L10.6548229,13.2355108 C9.28534322,13.2355108 8.4,12.2938523 8.4,11.1170233 C8.4,9.91530244 9.31230757,9 10.707774,9 C12.1032405,9 12.9625969,9.91530244 12.9890725,11.1170233 Z M27.4315392,20.1372914 L27.4313763,27.1646698 L23.3523456,27.1646698 L23.3523456,20.6075512 C23.3523456,18.9605437 22.7620625,17.8366707 21.2853771,17.8366707 C20.1584137,17.8366707 19.4871561,18.5943251 19.1923403,19.3261115 C19.0844829,19.5883702 19.0580074,19.9537753 19.0580074,20.3200753 L19.0580074,27.1649952 L14.978325,27.1649952 C14.978325,27.1649952 15.0320907,16.0587779 14.978325,14.9087116 L19.0580074,14.9087116 L19.0580074,16.6447114 C19.5994125,15.8101853 20.5690702,14.620585 22.7348537,14.620585 C25.4191511,14.620585 27.4315392,16.3726912 27.4315392,20.1372914 Z" id="Shape"></path>
            </g>
        </g>
    </g>
</svg>