<?xml version="1.0" encoding="UTF-8"?>
<svg width="36px" height="36px" viewBox="0 0 36 36" version="1.1" xmlns="http://www.w3.org/2000/svg" xmlns:xlink="http://www.w3.org/1999/xlink">
    <!-- Generator: Sketch 48.2 (47327) - http://www.bohemiancoding.com/sketch -->
    <title>Artboard 3</title>
    <desc>Created with Sketch.</desc>
    <defs></defs>
    <g id="Page-1" stroke="none" stroke-width="1" fill="none" fill-rule="evenodd">
        <g id="Artboard-3" fill="#000000">
            <g id="Youtube">
                <path d="M26.9586885,14.3768072 C26.9586885,14.3768072 27.147541,15.9648465 27.147541,17.5522726 L27.147541,19.0409828 C27.147541,20.6290221 26.9586885,22.2164482 26.9586885,22.2164482 C26.9586885,22.2164482 26.7739672,23.5684276 26.208,24.163789 C25.4897705,24.9455458 24.6847869,24.9492247 24.3159344,24.9952104 C21.6731803,25.1938686 17.704918,25.2 17.704918,25.2 C17.704918,25.2 12.7947541,25.1534012 11.2839344,25.0025681 C10.8637377,24.9210201 9.92006557,24.9455458 9.2012459,24.163789 C8.63527869,23.5684276 8.45114754,22.2164482 8.45114754,22.2164482 C8.45114754,22.2164482 8.26229508,20.6290221 8.26229508,19.0409828 L8.26229508,17.5522726 C8.26229508,15.9648465 8.45114754,14.3768072 8.45114754,14.3768072 C8.45114754,14.3768072 8.63527869,13.0248278 9.2012459,12.4294664 C9.92006557,11.6477096 10.724459,11.6440307 11.0939016,11.5986582 C13.7366557,11.4 17.7007869,11.4 17.7007869,11.4 L17.7090492,11.4 C17.7090492,11.4 21.6731803,11.4 24.3159344,11.5986582 C24.6847869,11.6440307 25.4897705,11.6477096 26.208,12.4294664 C26.7739672,13.0248278 26.9586885,14.3768072 26.9586885,14.3768072 Z M15.7550164,20.8448483 L20.8569836,18.0979695 L15.7544262,15.3320834 L15.7550164,20.8448483 Z" id="Combined-Shape"></path>
            </g>
        </g>
    </g>
</svg>