<?xml version="1.0" encoding="UTF-8"?>
<svg width="36px" height="36px" viewBox="0 0 36 36" version="1.1" xmlns="http://www.w3.org/2000/svg" xmlns:xlink="http://www.w3.org/1999/xlink">
    <!-- Generator: Sketch 48.2 (47327) - http://www.bohemiancoding.com/sketch -->
    <title>Artboard 3</title>
    <desc>Created with Sketch.</desc>
    <defs></defs>
    <g id="Page-1" stroke="none" stroke-width="1" fill="none" fill-rule="evenodd">
        <g id="Artboard-3" fill="#000000">
            <g id="Github" transform="translate(4.000000, 4.000000)">
                <path d="M14.0001159,0 C6.26907887,0 0,6.31944353 0,14.1152003 C0,20.3516655 4.01145933,25.6426451 9.57413372,27.5090734 C10.2738149,27.6397351 10.5306893,27.2028717 10.5306893,26.8300535 C10.5306893,26.4934653 10.5177065,25.3815555 10.5116787,24.2020943 C6.61683295,25.0559531 5.79497413,22.5366839 5.79497413,22.5366839 C5.15812047,20.9051661 4.24051335,20.4713413 4.24051335,20.4713413 C2.97028359,19.595277 4.33626164,19.6132751 4.33626164,19.6132751 C5.7421155,19.7128491 6.48236804,21.0678504 6.48236804,21.0678504 C7.73103705,23.2257548 9.75751604,22.6018979 10.5564231,22.2412343 C10.6820782,21.32894 11.0449017,20.7062518 11.4452826,20.3537692 C8.33566549,19.9968454 5.06677706,18.7865304 5.06677706,13.3779787 C5.06677706,11.8369189 5.61367833,10.5777518 6.50926102,9.58925769 C6.36389981,9.2337364 5.88469468,7.79809421 6.64488512,5.85382985 C6.64488512,5.85382985 7.82052577,5.47446689 10.4959139,7.30069164 C11.6126682,6.9879451 12.8103333,6.83110435 14.0001159,6.82572829 C15.1898986,6.83110435 16.388491,6.9879451 17.5073318,7.30069164 C20.1794742,5.47446689 21.353492,5.85382985 21.353492,5.85382985 C22.1155372,7.79809421 21.6361002,9.2337364 21.490739,9.58925769 C22.3884082,10.5777518 22.9316001,11.8369189 22.9316001,13.3779787 C22.9316001,18.7993862 19.6564521,19.9931056 16.5389526,20.3425496 C17.0411095,20.7805817 17.4885531,21.6395829 17.4885531,22.9564842 C17.4885531,24.845118 17.4723246,26.365141 17.4723246,26.8300535 C17.4723246,27.2056766 17.7243304,27.6458124 18.4339805,27.5072035 C23.9936411,25.6386715 28,20.3495618 28,14.1152003 C28,6.31944353 21.7318485,0 14.0001159,0" id="Fill-4"></path>
            </g>
        </g>
    </g>
</svg>